<svg xmlns="http://www.w3.org/2000/svg" xmlns:xlink="http://www.w3.org/1999/xlink" width="409" height="280" viewBox="0 0 409 280">
    <defs>
        <path id="a" d="M0 1.21h35.997v31.694H0z"/>
        <path id="c" d="M.897.681h27.508v32.752H.897z"/>
        <path id="e" d="M.643.68h23.241v32.753H.643z"/>
        <path id="g" d="M.963.68h24.704v32.753H.963z"/>
        <path id="i" d="M1.077 1.21h19.884v31.694H1.077z"/>
        <path id="k" d="M.695.439h29.902v28.68H.695z"/>
        <path id="m" d="M.104.84h91.963v114.633H.104z"/>
        <path id="o" d="M0 .032h157.38v168.333H0z"/>
    </defs>
    <g fill="none" fill-rule="evenodd">
        <path fill="#FFF" d="M23.341 277.67l-4.495-17.935a169.556 169.556 0 0 1-.837-3.75c-.085.374-.172.747-.258 1.12-.197.857-.397 1.72-.588 2.608l-4.412 17.958h-5.47L.859 247.369h5.225l3.15 16.298c.267 1.585.554 3.144.843 4.702.097.533.196 1.065.292 1.598.165-.748 1.088-4.963 1.378-6.314l4.15-16.284h4.431l4.144 16.259c.482 2.084.964 4.218 1.446 6.357.36-2.114.727-4.225 1.116-6.313l3.15-16.303h4.958l-6.283 30.302H23.34z"/>
        <g transform="translate(0 245.463)">
            <mask id="b" fill="#fff">
                <use xlink:href="#a"/>
            </mask>
            <path fill="#FFF" d="M35.997 1.21h-6.388l-.217 1.13-3.04 15.731c-.179.957-.353 1.923-.524 2.891-.225-.99-.449-1.973-.673-2.942L21.137 2.26l-.267-1.05h-5.514l-.269 1.05-4.009 15.732c-.217 1.01-.433 1.998-.649 2.983a212.78 212.78 0 0 1-.506-2.872L6.877 2.34l-.219-1.13H0l.356 1.682L6.483 31.8l.232 1.104H13.3l.26-1.061 4.274-17.406c.055-.25.11-.496.162-.74l.17.726 4.369 17.427.263 1.054h6.628l.23-1.11 5.993-28.908.348-1.676zm-1.712 1.393l-5.993 28.908h-4.406l-4.363-17.406c-.53-2.247-.968-4.32-1.41-6.566h-.177c-.44 2.247-.97 4.32-1.454 6.566l-4.275 17.406H7.845L1.72 2.603h3.789l3.04 15.733c.529 3.127 1.146 6.213 1.675 9.342h.176c.662-3.129 1.366-6.258 2.028-9.342l4.01-15.733h3.348l4.01 15.733c.706 3.04 1.412 6.213 2.117 9.342h.177c.528-3.129 1.056-6.258 1.63-9.342L30.76 2.603h3.526z" mask="url(#b)"/>
        </g>
        <path fill="#FFF" d="M71.742 251.45c-4.843 0-7.852 4.192-7.852 10.939 0 6.803 3.083 11.201 7.852 11.201 4.771 0 7.854-4.398 7.854-11.201 0-6.747-3.009-10.938-7.854-10.938m0 26.749c-7.797 0-13.034-6.354-13.034-15.811 0-9.446 5.115-15.55 13.034-15.55 7.824 0 13.08 6.25 13.08 15.55 0 9.457-5.256 15.81-13.08 15.81"/>
        <g transform="translate(57.114 245.463)">
            <mask id="d" fill="#fff">
                <use xlink:href="#c"/>
            </mask>
            <path fill="#FFF" d="M14.628 27.43c-4.346 0-7.156-4.123-7.156-10.505 0-6.316 2.743-10.241 7.156-10.241 4.414 0 7.157 3.925 7.157 10.241 0 6.382-2.81 10.505-7.157 10.505m0-26.749C6.415.681.897 7.21.897 16.925c0 9.874 5.518 16.51 13.73 16.51 8.24 0 13.778-6.636 13.778-16.51C28.405 7.21 22.868.681 14.628.681m0 28.142c5.155 0 8.55-4.67 8.55-11.898 0-7.182-3.395-11.634-8.55-11.634-5.156 0-8.55 4.452-8.55 11.634 0 7.227 3.394 11.898 8.55 11.898m0-26.749c7.271 0 12.384 5.642 12.384 14.851 0 9.299-5.113 15.116-12.384 15.116-7.272 0-12.338-5.817-12.338-15.116 0-9.255 5.066-14.85 12.338-14.85" mask="url(#d)"/>
        </g>
        <path fill="#FFF" d="M120.878 261.074c4.188 0 6.31-1.65 6.31-4.9 0-3.125-1.887-4.458-6.31-4.458h-4.15v9.358h4.15zm6.956 16.597l-6.963-12.208h-4.143v12.208h-5.05v-30.302h9.728c8.953 0 10.832 4.79 10.832 8.806 0 4.3-2.178 7.33-6.164 8.62l7.52 12.876h-5.76z"/>
        <path fill="#FFF" d="M117.424 252.412h3.453c5.18 0 5.614 1.942 5.614 3.763 0 1.804-.582 4.203-5.614 4.203h-3.453v-7.966zm3.981-5.739H110.98v31.695h6.444V266.16h3.042l6.563 11.504.4.704h7.379l-1.225-2.097-6.488-11.11c3.737-1.528 5.84-4.72 5.84-8.986 0-4.335-2-9.502-11.53-9.502zm-5.374 15.098h4.846c4.496 0 7.007-1.851 7.007-5.596 0-3.79-2.511-5.156-7.007-5.156h-4.846v10.752zm5.374-13.705c5.907 0 10.137 2.113 10.137 8.11 0 4.494-2.556 7.226-6.522 8.194l7.36 12.604h-4.142l-6.962-12.207h-5.245v12.207h-3.658v-28.908h9.032zM176.352 277.67l-8.344-14.519-4.174 4.913v9.607h-5.05v-30.302h5.05v13.425l11.14-13.425h5.94l-9.658 11.78 10.812 18.522z"/>
        <path fill="#FFF" d="M182.387 246.673h-7.742l-.416.503-9.697 11.687V246.673h-6.444V278.367h6.444V268.321l3.366-3.963 7.649 13.31.401.7H183.28l-1.224-2.096-9.956-17.055 8.419-10.268 1.868-2.276zm-2.944 1.393l-9.035 11.016 10.445 17.892h-4.098l-8.637-15.028-4.979 5.862v9.166h-3.658v-28.908h3.658v14.497h.13l12.031-14.497h4.143zM214.654 278.2c-4.064 0-7.842-1.595-10.638-4.488l-.441-.457 3.119-3.617.53.552c2.072 2.16 4.797 3.399 7.474 3.399 3.293 0 5.34-1.54 5.34-4.018 0-2.383-1.5-3.171-4.37-4.466l-4.159-1.815c-4.162-1.747-6.278-4.467-6.278-8.085 0-4.846 4.11-8.365 9.775-8.365 3.398 0 6.696 1.378 9.048 3.78l.44.448-2.863 3.434-.539-.512c-1.798-1.707-3.79-2.54-6.086-2.54-2.886 0-4.68 1.355-4.68 3.534 0 2.31 2.122 3.208 4.368 4.156l4.112 1.771c3.151 1.367 6.37 3.428 6.37 8.353 0 5.261-4.328 8.936-10.522 8.936"/>
        <g transform="translate(201.99 245.463)">
            <mask id="f" fill="#fff">
                <use xlink:href="#e"/>
            </mask>
            <path fill="#FFF" d="M13.016.68C7.046.68 2.544 4.578 2.544 9.744c0 3.924 2.26 6.863 6.716 8.731l4.125 1.799c2.825 1.276 3.966 1.87 3.966 3.833 0 2.083-1.736 3.324-4.643 3.324-2.452 0-5.06-1.19-6.972-3.185l-1.06-1.104-1 1.159-2.203 2.556-.83.961.883.917c2.928 3.028 6.882 4.7 11.137 4.7 6.502 0 11.221-4.051 11.221-9.634 0-5.355-3.627-7.617-6.787-8.99l-4.103-1.766c-2.47-1.043-3.96-1.798-3.96-3.523 0-2.09 2.057-2.836 3.982-2.836 2.109 0 3.944.767 5.607 2.347l1.078 1.024.95-1.142 1.984-2.378.806-.967-.879-.9C20.08 2.135 16.6.681 13.016.681m0 1.393c3.438 0 6.477 1.454 8.55 3.57l-1.983 2.38c-1.764-1.676-3.877-2.732-6.567-2.732-3.218 0-5.376 1.63-5.376 4.23 0 2.775 2.512 3.834 4.803 4.802l4.099 1.764c3.35 1.454 5.95 3.436 5.95 7.712 0 4.583-3.748 8.24-9.829 8.24-4.053 0-7.624-1.674-10.134-4.276l2.202-2.555c2.072 2.16 4.98 3.614 7.977 3.614 3.789 0 6.036-1.895 6.036-4.717 0-2.95-2.07-3.877-4.802-5.11L9.798 17.19c-2.732-1.147-5.86-3.218-5.86-7.447 0-4.408 3.833-7.669 9.078-7.669" mask="url(#f)"/>
        </g>
        <path fill="#FFF" d="M260.175 261.824c4.67 0 6.752-1.62 6.752-5.254 0-3.54-1.878-4.854-6.93-4.854h-3.446v10.108h3.624zm-8.673 15.847v-30.302h8.937c7.657 0 11.538 3.097 11.538 9.201 0 6.13-4.142 9.643-11.362 9.643h-4.064v11.458h-5.05z"/>
        <path fill="#FFF" d="M257.25 252.412h2.748c5.237 0 6.23 1.462 6.23 4.159 0 2.366-.733 4.556-6.053 4.556h-2.925v-8.715zm3.19-5.739h-9.634v31.695h6.444V266.91h3.366c7.55 0 12.056-3.864 12.056-10.34 0-6.566-4.115-9.897-12.232-9.897zm-4.583 15.847h4.318c5.022 0 7.446-1.85 7.446-5.95 0-4.185-2.556-5.55-7.623-5.55h-4.141v11.5zm4.583-14.454c6.476 0 10.84 2.16 10.84 8.505 0 6.082-4.318 8.946-10.664 8.946h-4.76v11.457H252.2v-28.908h8.241zM308.32 264.512l-1.085-3.504c-.756-2.3-1.493-4.717-2.32-7.635a164.523 164.523 0 0 1-2.304 7.646l-1.08 3.493h6.79zm4.091 13.158l-2.731-8.813h-9.51l-2.775 8.813h-5.229l10.256-30.301h5.14l10.254 30.301h-5.405z"/>
        <path fill="#FFF" d="M302.476 263.815l.805-2.6a156.451 156.451 0 0 0 1.641-5.308 176.096 176.096 0 0 0 1.655 5.33l.8 2.578h-4.901zm5.587-17.143h-6.14l-.322.948-9.783 28.908-.623 1.839h6.709l.306-.974 2.472-7.84h8.483l2.428 7.833.304.98h6.891l-.622-1.838-9.784-28.908-.319-.948zm-7.477 18.536h8.68l-1.366-4.406c-1.058-3.218-1.982-6.39-2.908-9.739h-.177a166.23 166.23 0 0 1-2.864 9.739l-1.365 4.406zm6.477-17.142l9.782 28.908h-3.921l-2.732-8.814h-10.533l-2.776 8.814h-3.746l9.783-28.908h4.143zM353.467 278.2c-7.955 0-13.3-6.3-13.3-15.68 0-9.378 5.434-15.68 13.519-15.68 3.236 0 6.317 1.386 8.456 3.806l.395.447-2.87 3.442-.538-.57c-1.6-1.692-3.366-2.514-5.4-2.514-5.09 0-8.379 4.31-8.379 10.981 0 6.882 3.16 11.157 8.25 11.157 2.36 0 4.266-.935 6.182-3.033l.522-.572 2.944 3.326-.399.461c-2.58 2.98-5.648 4.429-9.382 4.429"/>
        <g transform="translate(338.507 245.463)">
            <mask id="h" fill="#fff">
                <use xlink:href="#g"/>
            </mask>
            <path fill="#FFF" d="M15.179.68C6.676.68.963 7.264.963 17.058c0 9.795 5.625 16.377 13.997 16.377 3.947 0 7.188-1.528 9.909-4.668l.798-.92-.808-.915-2.025-2.293-1.027-1.16-1.046 1.145c-1.774 1.942-3.522 2.807-5.669 2.807-4.66 0-7.553-4.01-7.553-10.462 0-6.342 2.945-10.283 7.684-10.283 1.856 0 3.41.728 4.894 2.294l1.077 1.14 1.004-1.205 1.984-2.378.766-.92-.792-.895A11.987 11.987 0 0 0 15.179.68m0 1.393c3.524 0 6.257 1.674 7.932 3.57l-1.983 2.38c-1.542-1.63-3.436-2.732-5.905-2.732-5.466 0-9.077 4.494-9.077 11.676 0 7.272 3.482 11.855 8.946 11.855 2.775 0 4.847-1.234 6.697-3.261l2.027 2.291c-2.29 2.644-5.113 4.188-8.856 4.188-7.228 0-12.604-5.554-12.604-14.984 0-9.298 5.465-14.983 12.823-14.983" mask="url(#h)"/>
        </g>
        <path fill="#FFF" d="M389.037 277.67v-30.3h18.05v4.477h-13v7.685h10.973v4.522h-10.973v9.095h13.44v4.522z"/>
        <g transform="translate(387.264 245.463)">
            <mask id="j" fill="#fff">
                <use xlink:href="#i"/>
            </mask>
            <path fill="#FFF" d="M20.52 1.21H1.077V32.904h19.884V26.99H7.521v-7.701H18.493V13.373H7.52V7.08H20.52V1.21zm-1.393 1.393v3.084H6.128v9.079H17.1v3.13H6.128v10.487h13.44v3.128H2.47V2.603h16.657z" mask="url(#j)"/>
        </g>
        <g>
            <path fill="#FFF" d="M227.443 214.872c-3.77 0-7.001-1.243-9.604-3.694-2.623-2.465-3.952-5.613-3.952-9.358 0-3.63 1.325-6.749 3.94-9.27 2.605-2.51 5.84-3.785 9.616-3.785 3.772 0 7.006 1.275 9.614 3.784 2.617 2.527 3.941 5.644 3.941 9.271 0 3.74-1.329 6.889-3.953 9.358-2.606 2.45-5.836 3.694-9.602 3.694"/>
            <g transform="translate(211.879 186.757)">
                <mask id="l" fill="#fff">
                    <use xlink:href="#k"/>
                </mask>
                <path fill="#0073D2" d="M15.646.439c-4.154 0-7.717 1.397-10.592 4.151-2.892 2.772-4.36 6.2-4.36 10.19 0 4.11 1.477 7.57 4.386 10.29 2.87 2.687 6.426 4.05 10.566 4.05 4.137 0 7.693-1.363 10.566-4.05 2.91-2.722 4.385-6.185 4.385-10.29 0-3.986-1.466-7.415-4.36-10.188C23.36 1.835 19.798.439 15.647.439m0 2.773c3.4 0 6.274 1.122 8.614 3.363 2.337 2.24 3.507 4.975 3.507 8.206 0 3.335-1.17 6.095-3.507 8.282-2.34 2.19-5.214 3.284-8.614 3.284-3.404 0-6.276-1.094-8.614-3.284-2.34-2.187-3.507-4.947-3.507-8.282 0-3.231 1.167-5.966 3.507-8.206 2.338-2.241 5.21-3.363 8.614-3.363" mask="url(#l)"/>
            </g>
            <path fill="#FFF" d="M280.194 120.206c-15.648 0-23.594 12.096-24.29 36.977v2.26c0 11.932 2.097 21.194 6.232 27.525 4.07 6.229 9.676 9.258 17.136 9.258 3.728 0 7.109-.889 10.052-2.64 2.974-1.769 5.562-4.351 7.694-7.679 2.157-3.378 3.83-7.566 4.97-12.446 1.147-4.94 1.73-10.637 1.73-16.931 0-11.927-2.095-21.106-6.224-27.283-4.069-6.084-9.728-9.04-17.3-9.04m-1.075 93.661c-13.92 0-24.947-5.025-32.777-14.939-7.546-9.717-11.368-23.206-11.368-40.1 0-17.21 4.036-30.962 11.992-40.875 8.126-10.31 19.412-15.542 33.537-15.542 13.617 0 24.437 5.028 32.165 14.943 3.972 4.794 6.958 10.532 8.848 17.02 1.875 6.432 2.824 13.784 2.824 21.847 0 17.606-4.03 31.714-11.98 41.934-7.92 10.42-19.108 15.712-33.24 15.712"/>
            <g transform="translate(233.97 100.403)">
                <mask id="n" fill="#fff">
                    <use xlink:href="#m"/>
                </mask>
                <path fill="#0073D2" d="M23.769 57.196c.677-24.032 8.153-35.716 22.854-35.716 7.056 0 12.325 2.764 16.108 8.452 3.968 5.967 5.98 14.92 5.98 26.609 0 6.211-.57 11.822-1.692 16.68-1.103 4.742-2.71 8.799-4.778 12.054-2.009 3.153-4.436 5.596-7.217 7.258-2.76 1.652-5.808 2.453-9.322 2.453-6.938 0-12.152-2.831-15.94-8.658-3.977-6.125-5.993-15.164-5.993-26.863v-2.27zM46.93.839c-14.544 0-26.175 5.432-34.568 16.14C4.235 27.163.103 41.256.103 58.847c0 17.271 3.915 31.095 11.633 41.088 8.102 10.317 19.474 15.539 33.812 15.539 14.564 0 26.1-5.496 34.292-16.332 8.106-10.48 12.227-24.926 12.227-42.909 0-8.225-.966-15.732-2.873-22.313-1.935-6.678-4.994-12.592-9.093-17.578C72.114 6.055 60.954.839 46.93.839zm-1.229 96.93c3.99 0 7.57-.948 10.742-2.845 3.172-1.897 5.884-4.617 8.136-8.153 2.25-3.54 3.964-7.848 5.142-12.923 1.175-5.078 1.765-10.846 1.765-17.307 0-12.306-2.15-21.691-6.446-28.152-4.296-6.463-10.437-9.692-18.418-9.692-16.372 0-24.916 12.822-25.63 38.46v2.308c0 12.307 2.147 21.766 6.444 28.381 4.299 6.616 10.385 9.923 18.265 9.923zm1.229-94.147c13.199 0 23.533 4.82 31.002 14.46 3.886 4.717 6.754 10.257 8.596 16.613 1.842 6.361 2.762 13.538 2.762 21.538 0 17.437-3.89 31.18-11.665 41.228-7.675 10.154-18.368 15.23-32.078 15.23-13.505 0-24.046-4.82-31.618-14.46C6.564 88.694 2.88 75.566 2.88 58.847c0-17.022 3.888-30.405 11.665-40.15C22.424 8.647 33.217 3.622 46.931 3.622z" mask="url(#n)"/>
            </g>
            <path fill="#FFF" d="M120.267 139.286c4.855.443 10.36.946 16.269 1.151l1.724.032c1.226.02 2.503.034 3.821.034 6.24 0 11.675-.323 16.615-.988 3.487-.47 6.802-1.125 9.852-1.944 6.202-1.67 11.662-4.139 16.23-7.335 12.514-8.753 18.86-23.477 18.86-43.761 0-36.87-20.225-54.792-61.829-54.792-1.673 0-3.276.025-4.785.059-7.537.236-14.207.7-19.845 1.38v105.886c1.002.088 2.032.182 3.088.278zm16.853 29.397c-6.126 0-12.503-.258-18.953-.764-15.03-1.177-26.64-3.348-31.597-4.275-1.018-.191-1.7-.319-2.002-.36l-1.216-.156V8.278l1.216-.156c.291-.039.936-.158 1.895-.335 6.45-1.183 26.083-4.783 49.25-4.783 28.018 0 50.802 5.186 67.72 15.417 22.927 13.864 34.553 36.76 34.553 68.054 0 38.31-17.481 63.613-51.96 75.208-5.434 1.828-11.342 3.318-17.558 4.427-9.566 1.708-20.093 2.573-31.288 2.573h-.06z"/>
            <g transform="translate(82.348 2)">
                <mask id="p" fill="#fff">
                    <use xlink:href="#o"/>
                </mask>
                <path fill="#0073D2" d="M36.607 32.75c5.325-.598 11.535-1.01 18.5-1.228 1.697-.037 3.25-.057 4.723-.057 10.748 0 26.498.879 39.215 8.47 14.072 8.399 21.205 23.502 21.205 44.894 0 19.791-6.144 34.122-18.262 42.594-4.432 3.1-9.745 5.498-15.787 7.124-2.995.805-6.248 1.448-9.67 1.908-4.876.655-10.249.976-16.422.976-1.313 0-2.58-.014-3.796-.036-.589-.01-1.175-.018-1.739-.032-5.84-.203-11.33-.704-16.172-1.145l-1.795-.164V32.75zM53.743.032c-23.29 0-43.01 3.613-49.49 4.803-.856.155-1.592.291-1.823.32L0 5.472V162.644l2.43.314c.237.032 1.018.178 1.924.347 4.976.93 16.635 3.109 31.735 4.293 6.482.506 12.894.767 19.059.767 11.336 0 21.945-.872 31.585-2.592 6.28-1.12 12.253-2.628 17.752-4.476 15.974-5.37 28.534-13.81 37.332-25.087 10.326-13.24 15.564-30.526 15.564-51.38 0-31.79-11.848-55.069-35.213-69.191C105.032 5.283 82.01.032 53.743.032zm6.366 140.174c5.117 0 10.882-.205 16.795-1 3.328-.448 6.697-1.084 10.026-1.98 5.855-1.576 11.565-3.967 16.664-7.532 11.225-7.848 19.446-21.424 19.446-44.865 0-51.218-39.097-56.14-63.21-56.14-1.681 0-3.294.026-4.812.059-8.004.251-15.25.772-21.201 1.543v108.306c5.951.5 12.927 1.274 20.697 1.541a313.73 313.73 0 0 0 5.595.068zM53.743 2.807c44.138 0 100.847 13.204 100.847 82.022 0 43.456-22.942 64.41-50.996 73.838-5.628 1.893-11.458 3.321-17.354 4.373-10.418 1.86-21.021 2.55-31.032 2.55h-.059c-6.622 0-12.976-.3-18.84-.76-18.29-1.432-31.793-4.4-33.52-4.623V7.91c2.24-.29 24.305-5.102 50.954-5.102z" mask="url(#p)"/>
            </g>
            <path fill="#FFF" d="M167.897 168.505h-31.173l32.25-39.502c-.1 3.789-.201 5.853-.298 8.968 5.812-1.577 11.483-3.969 16.545-7.534v-11.333c0-8.45-3.542-12.676-10.62-12.676-5.285 0-9.211 3.005-12.569 6.808a837.645 837.645 0 0 0-5.544 6.337s-18.261 22.732-18.243 22.732l-19.73 24.673a2.602 2.602 0 0 0-.104-.006l-1.9 2.367c-1.354 2.087-2.031 4.016-2.031 5.789 0 5.426 3.173 8.138 9.525 8.138h43.881v17.116h-16.414c-3.977 0-7.23 3.261-7.23 7.247 0 3.984 3.253 7.243 7.23 7.243h49.16c3.977 0 7.23-3.26 7.23-7.243 0-3.986-3.253-7.247-7.23-7.247H185.22v-17.387h15.41c3.978 0 7.232-3.26 7.232-7.245 0-3.984-3.254-7.245-7.231-7.245H185.22v-4.922l-17.324 4.922z"/>
            <path fill="#0073D2" d="M151.95 201.356c-3.23 0-5.86 2.633-5.86 5.87 0 3.236 2.63 5.868 5.86 5.868h49.283c3.231 0 5.86-2.632 5.86-5.868 0-3.237-2.629-5.87-5.86-5.87h-16.839v-20.207h16.839c3.231 0 5.86-2.633 5.86-5.87 0-3.235-2.629-5.869-5.86-5.869h-16.839v-4.482l-15.978 4.482h-34.183l36.759-45.003-.107 4.063c-.061 2.296-.122 3.96-.184 5.605l-.052 1.482c5.169-1.572 9.782-3.724 13.745-6.415v-10.628c0-7.717-2.941-11.312-9.258-11.312-4.112 0-7.677 1.96-11.56 6.353a829.04 829.04 0 0 0-5.55 6.341 29258.91 29258.91 0 0 0-17.703 22.047l.001.002-20.792 25.99-.104-.007-1.401 1.744c-1.177 1.828-1.774 3.504-1.774 4.986 0 2.903.846 6.762 8.16 6.762h45.382v19.936h-17.846zm49.283 14.52h-49.284c-4.762 0-8.636-3.88-8.636-8.65 0-4.771 3.874-8.653 8.636-8.653h15.068v-14.37h-42.604c-9.04 0-10.937-5.192-10.937-9.545 0-2.044.76-4.251 2.26-6.56l.081-.115 2.368-2.945.1.007 19.32-24.15.053.041c.429-.65 1.27-1.7 2.804-3.608l15.434-19.216a814.489 814.489 0 0 1 5.6-6.401c2.766-3.129 7.19-7.291 13.64-7.291 5.49 0 12.036 2.445 12.036 14.094v12.08l-.59.416c-4.81 3.386-10.538 5.995-17.022 7.753l-1.811.491.06-1.876c.037-1.244.077-2.32.118-3.406l.052-1.486-27.884 34.142h28.129l18.948-5.38v5.38h14.06c4.764 0 8.639 3.881 8.639 8.652 0 4.77-3.875 8.651-8.638 8.651h-14.061v14.642h14.06c4.764 0 8.639 3.882 8.639 8.653 0 4.77-3.875 8.65-8.638 8.65z"/>
        </g>
    </g>
</svg>
