<svg xmlns="http://www.w3.org/2000/svg" width="72" height="72" viewBox="0 0 72 72">
    <g fill="none" fill-rule="evenodd">
        <path d="M0 0h72v72H0z"/>
        <g fill="#FDDB0E">
            <path d="M36.013 0C16.043 0 0 16.241 0 36s16.044 36 36.013 36C55.982 72 72 55.759 72 36S55.982 0 36.013 0zm0 3.15c17.894 0 32.595 14.598 32.595 32.85 0 18.252-14.701 32.85-32.595 32.85S3.469 54.253 3.469 36c0-18.252 14.65-32.85 32.544-32.85z"/>
            <path d="M36 41.4c-1.485 0-2.7-1.15-2.7-2.555v-14.69c0-1.405 1.215-2.555 2.7-2.555s2.7 1.15 2.7 2.555v14.69c0 1.405-1.215 2.555-2.7 2.555z"/>
            <ellipse cx="3.15" cy="3.404" rx="2.52" ry="2.618" transform="translate(33.3 44.1)"/>
        </g>
    </g>
</svg>
