<svg xmlns="http://www.w3.org/2000/svg" width="72" height="72" viewBox="0 0 72 72">
    <g fill="none" fill-rule="evenodd">
        <path d="M0 0h72v72H0z"/>
        <path fill="#43B02A" d="M68.432 32.51v-5.901c0-4.193-3.338-7.609-7.434-7.609-4.097 0-7.51 3.416-7.51 7.609v5.9c-2.2 2.097-3.642 5.047-3.642 8.386 0 6.289 5.007 11.336 11.076 11.336 6.068 0 11.075-5.125 11.075-11.336.076-3.339-1.365-6.289-3.565-8.385zm-12.669-5.901c0-2.95 2.352-5.357 5.235-5.357 2.882 0 5.234 2.407 5.234 5.357v4.27c-1.593-.854-3.338-1.397-5.234-1.397-1.897 0-3.642.543-5.235 1.397v-4.27zm5.235 23.37c-4.931 0-8.876-4.115-8.876-9.084 0-5.047 4.02-9.084 8.876-9.084 4.93 0 8.875 4.115 8.875 9.084 0 4.97-4.02 9.084-8.875 9.084z"/>
        <path fill="#43B02A" d="M62.604 37.806l-3.472 3.364-1.736-1.682a1.17 1.17 0 0 0-1.656 0c-.474.459-.474 1.147 0 1.606l2.603 2.523c.237.23.552.306.79.306.236 0 .551-.076.788-.306l4.34-4.206c.473-.458.473-1.147 0-1.605a1.17 1.17 0 0 0-1.657 0z"/>
        <path fill="#0072CE" d="M16.47 31.923a.99.99 0 0 0-1.419-.385l-1.987 1.231v-2.461c0-.616-.496-1.154-1.064-1.154-.568 0-1.064.538-1.064 1.154v2.461l-1.987-1.23a.99.99 0 0 0-1.42.384c-.284.539-.142 1.23.355 1.539l1.987 1.23-1.987 1.231c-.497.308-.639 1-.355 1.539.213.384.568.538.923.538.142 0 .355-.077.497-.154l1.987-1.23v2.46c0 .616.496 1.155 1.064 1.155.568 0 1.064-.539 1.064-1.154v-2.462l1.987 1.231c.142.077.355.154.497.154.355 0 .71-.23.923-.538.284-.539.142-1.231-.355-1.539l-1.987-1.23 1.987-1.231c.497-.308.639-1 .355-1.539zM30.286 31.923a.985.985 0 0 0-1.414-.385l-1.98 1.231v-2.461c0-.616-.496-1.154-1.062-1.154-.565 0-1.06.538-1.06 1.154v2.461l-1.98-1.23a.985.985 0 0 0-1.415.384c-.283.539-.141 1.23.354 1.539l1.98 1.23-1.98 1.231c-.495.308-.637 1-.354 1.539.212.384.566.538.92.538.14 0 .353-.077.494-.154l1.98-1.23v2.46c0 .616.496 1.155 1.061 1.155.566 0 1.061-.539 1.061-1.154v-2.462l1.98 1.231c.142.077.354.154.496.154.353 0 .707-.23.919-.538.283-.539.141-1.231-.354-1.539l-1.98-1.23 1.98-1.231c.495-.308.708-1 .354-1.539zM45.086 31.923a.99.99 0 0 0-1.42-.385L41.68 32.77v-2.461c0-.616-.497-1.154-1.065-1.154-.567 0-1.064.538-1.064 1.154v2.461l-1.987-1.23a.99.99 0 0 0-1.42.384c-.283.539-.141 1.23.355 1.539l1.987 1.23-1.987 1.231c-.496.308-.638 1-.354 1.539.213.384.567.538.922.538.142 0 .355-.077.497-.154l1.987-1.23v2.46c0 .616.497 1.155 1.064 1.155.568 0 1.065-.539 1.065-1.154v-2.462l1.987 1.231c.142.077.355.154.497.154.354 0 .71-.23.922-.538.284-.539.142-1.231-.355-1.539l-2.058-1.23 1.987-1.231c.497-.308.71-1 .426-1.539z"/>
        <path fill="#43B02A" d="M49.846 24.797c0-.63-.526-1.182-1.128-1.182H6.315C2.782 23.615 0 26.608 0 30.231v9.845c0 3.702 2.857 6.616 6.315 6.616h39.396c.602 0 1.128-.551 1.128-1.181s-.526-1.182-1.128-1.182H6.315c-2.255 0-4.135-1.969-4.135-4.331V30.23c0-2.363 1.88-4.332 4.135-4.332h42.403c.602 0 1.128-.472 1.128-1.102z"/>
    </g>
</svg>
