<?xml version="1.0" encoding="UTF-8"?>
<svg width="244px" height="217px" viewBox="0 0 244 217" version="1.1" xmlns="http://www.w3.org/2000/svg" xmlns:xlink="http://www.w3.org/1999/xlink">
    <!-- Generator: sketchtool 58 (101010) - https://sketch.com -->
    <title>86ADE313-3685-4A17-B070-015EA528678E</title>
    <desc>Created with sketchtool.</desc>
    <defs>
        <polygon id="path-1" points="0.694852301 0.438731413 30.5971299 0.438731413 30.5971299 29.1193416 0.694852301 29.1193416"></polygon>
        <polygon id="path-3" points="0.103819608 0.839337498 92.0668526 0.839337498 92.0668526 115.473251 0.103819608 115.473251"></polygon>
        <polygon id="path-5" points="0 0.0316010572 157.380603 0.0316010572 157.380603 168.364988 0 168.364988"></polygon>
    </defs>
    <g id="Symbols" stroke="none" stroke-width="1" fill="none" fill-rule="evenodd">
        <g id="sym/logo/d4/negativo">
            <g id="Group-21" transform="translate(0.000000, 2.000000)">
                <g id="Group-20">
                    <path d="M145.09465,212.872428 C141.324259,212.872428 138.093709,211.628838 135.49085,209.177989 C132.868154,206.713167 131.539095,203.565069 131.539095,199.820327 C131.539095,196.190164 132.863903,193.071409 135.478098,190.550695 C138.083791,188.039762 141.318591,186.765432 145.09465,186.765432 C148.866458,186.765432 152.101259,188.039762 154.708369,190.549298 C157.325397,193.075601 158.650206,196.192958 158.650206,199.820327 C158.650206,203.560877 157.321146,206.708975 154.697033,209.177989 C152.09134,211.628838 148.860791,212.872428 145.09465,212.872428" id="Fill-1" fill="#FFFFFF"></path>
                    <g id="Group-5" transform="translate(129.530864, 184.757202)">
                        <mask id="mask-2" fill="white">
                            <use xlink:href="#path-1"></use>
                        </mask>
                        <g id="Clip-4"></g>
                        <path d="M15.6459911,0.438731413 C11.4918751,0.438731413 7.92918302,1.83645981 5.05412727,4.59031754 C2.16209285,7.36220153 0.694852301,10.789964 0.694852301,14.7807005 C0.694852301,18.8893009 2.17058219,22.3503426 5.07959529,25.0709211 C7.95040636,27.7568337 11.506024,29.1198962 15.6459911,29.1198962 C19.7831284,29.1198962 23.3387461,27.7568337 26.2123869,25.0709211 C29.1228149,22.3475694 30.5971299,18.885141 30.5971299,14.7807005 C30.5971299,10.7941239 29.1313042,7.3649748 26.2378549,4.59170417 C23.3585545,1.83507317 19.7972773,0.438731413 15.6459911,0.438731413 M15.6459911,3.21200204 C19.0459709,3.21200204 21.9196117,4.33379001 24.2598392,6.57459267 C26.5972369,8.81539534 27.7673506,11.5498402 27.7673506,14.7807005 C27.7673506,18.1155584 26.5972369,20.8763493 24.2598392,23.0630732 C21.9196117,25.2525703 19.0459709,26.3466256 15.6459911,26.3466256 C12.2417666,26.3466256 9.36954067,25.2525703 7.03214299,23.0630732 C4.69191553,20.8763493 3.52463158,18.1155584 3.52463158,14.7807005 C3.52463158,11.5498402 4.69191553,8.81539534 7.03214299,6.57459267 C9.36954067,4.33379001 12.2417666,3.21200204 15.6459911,3.21200204" id="Fill-3" fill="#0073D2" mask="url(#mask-2)"></path>
                    </g>
                    <path d="M197.846205,118.206457 C182.197757,118.206457 174.251834,130.302188 173.555018,155.182657 L173.555018,157.443761 C173.555018,169.374519 175.652419,178.636591 179.787415,184.967961 C183.857041,191.196743 189.463555,194.225874 196.924072,194.225874 C200.651549,194.225874 204.032704,193.337237 206.975742,191.586302 C209.949378,189.817344 212.537749,187.234611 214.669921,183.907419 C216.827129,180.528932 218.500321,176.340828 219.639427,171.460946 C220.786878,166.521451 221.369643,160.823634 221.369643,154.529695 C221.369643,142.603096 219.275024,133.424204 215.145592,127.246717 C211.077357,121.1635 205.41799,118.206457 197.846205,118.206457 M196.771079,211.868313 C182.851456,211.868313 171.823411,206.842866 163.994318,196.929218 C156.447569,187.21243 152.625514,173.723437 152.625514,156.828231 C152.625514,139.619714 156.66176,125.867318 164.617419,115.953671 C172.744153,105.643533 184.029506,100.411523 198.154974,100.411523 C211.771391,100.411523 222.5922,105.439742 230.31976,115.354776 C234.292027,120.148706 237.27818,125.886727 239.168345,132.374752 C241.04321,138.807324 241.99177,146.159033 241.99177,154.22193 C241.99177,171.828324 237.962478,185.93562 230.012383,196.155646 C222.091494,206.57669 210.903501,211.868313 196.771079,211.868313" id="Fill-6" fill="#FFFFFF"></path>
                    <g id="Group-10" transform="translate(151.621399, 98.403292)">
                        <mask id="mask-4" fill="white">
                            <use xlink:href="#path-3"></use>
                        </mask>
                        <g id="Clip-9"></g>
                        <path d="M23.7685415,57.195849 C24.4459058,33.1635003 31.921898,21.4798333 46.622647,21.4798333 C53.6794507,21.4798333 58.9484567,24.2442351 62.7308702,29.9316405 C66.6992812,35.898686 68.7105536,44.8513411 68.7105536,56.5405731 C68.7105536,62.7524775 68.1414565,68.3633645 67.0185308,73.2201972 C65.9164258,77.962948 64.3090735,82.0198155 62.2408915,85.2753264 C60.2323953,88.4278853 57.8047104,90.8709097 55.024463,92.5334463 C52.2636482,94.1848529 49.2155088,94.9862094 45.7023754,94.9862094 C38.7635553,94.9862094 33.5500709,92.1550279 29.7621053,86.3284981 C25.785366,80.2028508 23.7685415,71.1639386 23.7685415,59.4649679 L23.7685415,57.195849 Z M46.9307923,0.839337498 C32.386892,0.839337498 20.7564911,6.27075403 12.3630033,16.979159 C4.23463152,27.163065 0.103819608,41.2563666 0.103819608,58.8472556 C0.103819608,76.1181585 4.01809702,89.9415587 11.7356085,99.9348643 C19.8376076,110.25233 31.2098327,115.473668 45.5483028,115.473668 C60.1116356,115.473668 71.6476497,109.978255 79.8398714,99.1418552 C87.9460346,88.6616143 92.0671302,74.2163279 92.0671302,56.2331081 C92.0671302,48.0080737 91.1010532,40.5009211 89.193884,33.9203371 C87.258954,27.2423659 84.1997102,21.3281877 80.1008232,16.3419693 C72.1140317,6.05511121 60.9541769,0.839337498 46.9307923,0.839337498 L46.9307923,0.839337498 Z M45.7023754,97.7686974 C49.6916071,97.7686974 53.2727545,96.8212603 56.4444296,94.9236035 C59.6161048,93.0273379 62.3283381,90.3074559 64.5797417,86.7709137 C66.8297572,83.231589 68.5439886,78.9229063 69.7224359,73.8476483 C70.8967191,68.7696077 71.4866368,63.0015101 71.4866368,56.5405731 C71.4866368,44.23502 69.3379484,34.849688 65.0405715,28.388751 C60.7445826,21.9264226 54.6038864,18.6973453 46.622647,18.6973453 C30.2506959,18.6973453 21.7072996,31.5190499 20.9924582,57.1568941 L20.9924582,59.4649679 C20.9924582,71.7719122 23.1397586,81.2309801 27.4371355,87.8463453 C31.7359005,94.4617104 37.822463,97.7686974 45.7023754,97.7686974 L45.7023754,97.7686974 Z M46.9307923,3.62182547 C60.1296802,3.62182547 70.4636502,8.44248589 77.9327022,18.0824155 C81.8192188,22.7987326 84.6869128,28.3386662 86.5288441,34.69526 C88.3707753,41.0560275 89.2910469,48.2334552 89.2910469,56.2331081 C89.2910469,73.669569 85.4003662,87.4122772 77.625945,97.4612325 C69.9514628,107.614531 59.25799,112.69118 45.5483028,112.69118 C32.0426577,112.69118 21.5018695,107.871911 13.9301023,98.2305904 C6.56376538,88.6936129 2.87990288,75.5658346 2.87990288,58.8472556 C2.87990288,41.8253854 6.7678075,28.4416182 14.5450048,18.6973453 C22.4235291,8.64699876 33.2169409,3.62182547 46.9307923,3.62182547 L46.9307923,3.62182547 Z" id="Fill-8" fill="#0073D2" mask="url(#mask-4)"></path>
                    </g>
                    <path d="M37.9188923,137.286022 C42.7737863,137.729055 48.2789765,138.231807 54.1874619,138.437352 L55.912282,138.469295 C57.1375182,138.488739 58.4143874,138.502627 59.7331212,138.502627 C65.9737322,138.502627 71.4077526,138.180421 76.3477712,137.515177 C79.8350894,137.044368 83.1493674,136.390235 86.1998986,135.570833 C92.401436,133.900085 97.8619707,131.432156 102.429395,128.236486 C114.944108,119.482768 121.289381,104.758522 121.289381,84.4748391 C121.289381,47.6058945 101.06461,29.6832016 59.4610015,29.6832016 C57.7878145,29.6832016 56.1844017,29.7082003 54.6758819,29.7415319 C47.1388648,29.9776309 40.4684443,30.4414961 34.830683,31.1220167 L34.830683,137.008259 C35.8326416,137.095754 36.8625098,137.190194 37.9188923,137.286022 L37.9188923,137.286022 Z M54.7721704,166.683128 C48.6459891,166.683128 42.2686206,166.424807 35.8186867,165.919278 C20.7893082,164.74156 9.17886911,162.570838 4.22210472,161.644497 C3.20340033,161.45284 2.52240342,161.325069 2.21958307,161.284793 L1.00411523,161.127857 L1.00411523,6.278845 L2.21958307,6.1219086 C2.51123953,6.0830217 3.15595382,5.96358338 4.11465234,5.78720352 C10.5645862,4.60393081 30.1976712,1.00411523 53.3641255,1.00411523 C81.3826828,1.00411523 104.166774,6.18996067 121.08564,16.421381 C144.012071,30.2845596 155.63786,53.1806089 155.63786,84.4748391 C155.63786,122.785376 138.156614,148.088247 103.678354,159.683486 C98.2443337,161.51117 92.3358482,163.001372 86.1203559,164.109648 C76.5543031,165.817894 66.0267607,166.683128 54.8321762,166.683128 L54.7721704,166.683128 Z" id="Fill-11" fill="#FFFFFF"></path>
                    <g id="Group-15">
                        <mask id="mask-6" fill="white">
                            <use xlink:href="#path-5"></use>
                        </mask>
                        <g id="Clip-14"></g>
                        <path d="M36.6069568,32.75041 C41.9320465,32.1522675 48.1416283,31.7400905 55.1073533,31.5222056 C56.8037927,31.484735 58.357932,31.4653058 59.8297606,31.4653058 C70.5775967,31.4653058 86.3282548,32.3437841 99.0445744,39.9350585 C113.116929,48.3340334 120.250066,63.4374775 120.250066,84.8290503 C120.250066,104.620488 114.106054,118.950927 101.988231,127.423455 C97.5560046,130.523804 92.2434709,132.920537 86.2013008,134.54704 C83.2060251,135.351965 79.9526562,135.994517 76.5304805,136.455267 C71.6546125,137.11031 66.2820895,137.430892 60.1087802,137.430892 C58.7959928,137.430892 57.5292437,137.417014 56.3127181,137.394809 C55.7239867,137.385094 55.1380455,137.376768 54.5744259,137.362889 C48.7331499,137.16027 43.2448338,136.659274 38.4024481,136.217953 C37.7955805,136.162441 37.1984784,136.108317 36.6069568,136.054193 L36.6069568,32.75041 Z M53.7429474,0.0316010572 C30.4531789,0.0316010572 10.7320715,3.64543625 4.25323572,4.83478216 C3.39664546,4.99021593 2.66142873,5.12622048 2.42984244,5.15536431 L-0.000418529445,5.47178306 L-0.000418529445,7.90876255 L-0.000418529445,160.207491 L-0.000418529445,162.64447 L2.42984244,162.958113 C2.66700913,162.990033 3.44826409,163.135752 4.35368279,163.305064 C9.32999787,164.234891 20.9888331,166.413739 36.0893754,167.597534 C42.5710014,168.104081 48.9828725,168.364988 55.1478112,168.364988 C66.4843787,168.364988 77.092705,167.493449 86.7328332,165.772575 C93.0135651,164.652619 98.9859802,163.145466 104.485457,161.296915 C120.459331,155.927511 133.0194,147.486902 141.816888,136.209626 C152.143405,122.97 157.380603,105.683544 157.380603,84.8290503 C157.380603,53.0400684 145.53343,29.7610855 122.168326,15.6388171 C105.032336,5.28304206 82.010426,0.0316010572 53.7429474,0.0316010572 L53.7429474,0.0316010572 Z M60.1087802,140.206495 C65.2260002,140.206495 70.9905457,140.0011 76.9043668,139.20589 C80.2316759,138.75763 83.6008379,138.122017 86.9295421,137.225497 C92.784769,135.650342 98.4949057,133.25916 103.593989,129.693898 C114.818949,121.845881 123.040262,108.270406 123.040262,84.8290503 C123.040262,33.6108469 83.9426369,28.6883149 59.8297606,28.6897024 C58.1486673,28.6897024 56.5359339,28.7146831 55.0180671,28.7479904 C47.014389,28.9991824 39.7682492,29.519608 33.8167605,30.2912257 L33.8167605,138.596645 C39.7682492,139.097641 46.74374,139.870647 54.5144366,140.138493 C55.0808465,140.150983 55.6723681,140.160697 56.2652848,140.170412 C57.4985516,140.191229 58.7820419,140.206495 60.1087802,140.206495 L60.1087802,140.206495 Z M53.7429474,2.80720412 C97.8810625,2.80720412 154.590407,16.0107479 154.590407,84.8290503 C154.590407,128.28528 131.648018,149.238307 103.593989,158.667031 C97.9661635,160.559992 92.1360483,161.98804 86.2403636,163.039993 C75.8217706,164.899647 65.2190247,165.589385 55.2078004,165.589385 L55.1492063,165.589385 C48.5266754,165.589385 42.1733984,165.28962 36.3084058,164.830257 C18.0186691,163.398046 4.51551417,160.430927 2.78977776,160.207491 L2.78977776,7.90876255 C5.02891029,7.61871203 27.0937826,2.80720412 53.7429474,2.80720412 L53.7429474,2.80720412 Z" id="Fill-13" fill="#0073D2" mask="url(#mask-6)"></path>
                    </g>
                    <path d="M85.5490444,166.504716 L54.3757597,166.504716 L86.6253705,127.003108 C86.5256337,130.791542 86.4245117,132.855815 86.3275454,135.970966 C92.1399833,134.393955 97.8111274,132.002064 102.872769,128.437132 L102.872769,117.103759 C102.872769,108.653705 99.3307281,104.427984 92.2521871,104.427984 C86.967523,104.427984 83.0417725,107.433465 79.6839676,111.235781 C78.0687859,113.061282 76.220885,115.172754 74.1402649,117.572975 C74.1402649,117.572975 55.8787375,140.304967 55.8967456,140.304967 L36.1668711,164.977682 C36.1322403,164.974905 36.0976095,164.973517 36.0629787,164.972129 L34.1624389,167.339033 C32.8090662,169.425517 32.1316872,171.355134 32.1316872,173.127882 C32.1316872,178.554408 35.3052562,181.265588 41.6565497,181.265588 L85.5379625,181.265588 L85.5379625,198.382258 L69.124336,198.382258 C65.1473319,198.382258 61.8948047,201.643171 61.8948047,205.628731 C61.8948047,209.612903 65.1473319,212.872428 69.124336,212.872428 L118.283487,212.872428 C122.260491,212.872428 125.514403,209.612903 125.514403,205.628731 C125.514403,201.643171 122.260491,198.382258 118.283487,198.382258 L102.872769,198.382258 L102.872769,181.265588 L102.872769,180.994887 L118.283487,180.994887 C122.260491,180.994887 125.514403,177.735362 125.514403,173.749802 C125.514403,169.765629 122.260491,166.504716 118.283487,166.504716 L102.872769,166.504716 L102.872769,161.5835 L85.5490444,166.504716 Z" id="Fill-16" fill="#FFFFFF"></path>
                    <path d="M69.6011615,199.355637 C66.3709575,199.355637 63.7420771,201.989099 63.7420771,205.226323 C63.7420771,208.462157 66.3709575,211.094227 69.6011615,211.094227 L118.884685,211.094227 C122.116278,211.094227 124.745158,208.462157 124.745158,205.226323 C124.745158,201.989099 122.116278,199.355637 118.884685,199.355637 L102.046241,199.355637 L102.046241,179.149068 L118.884685,179.149068 C122.116278,179.149068 124.745158,176.515606 124.745158,173.279773 C124.745158,170.04394 122.116278,167.410478 118.884685,167.410478 L102.046241,167.410478 L102.046241,162.928167 L86.0674244,167.410478 L51.8850345,167.410478 L88.6435329,122.406519 L88.5366001,126.470091 C88.4754956,128.765502 88.4143912,130.429327 88.3532867,132.075066 C88.3352331,132.564754 88.3185683,133.05305 88.3005147,133.55665 C93.4693964,131.984641 98.0827831,129.83252 102.046241,127.14202 L102.046241,116.513574 C102.046241,108.796821 99.104894,105.202069 92.7875262,105.202069 C88.6754739,105.202069 85.1105842,107.16221 81.2276735,111.555487 C79.6097941,113.382077 77.7599955,115.496638 75.6782777,117.896385 C70.2358146,124.669933 60.3716107,136.948293 57.9746494,139.943456 L57.9760381,139.944847 L37.1838572,165.93585 L37.0797018,165.927503 L35.6784655,167.672015 C34.5022046,169.499997 33.9050474,171.176342 33.9050474,172.657925 C33.9050474,175.561272 34.7507887,179.420344 42.0652702,179.420344 L87.446441,179.420344 L87.446441,199.355637 L69.6011615,199.355637 Z M118.884685,213.876543 L69.6011615,213.876543 C64.8391799,213.876543 60.9646017,209.995213 60.9646017,205.226323 C60.9646017,200.454652 64.8391799,196.573321 69.6011615,196.573321 L84.6689656,196.573321 L84.6689656,182.20266 L42.0652702,182.20266 C33.0245877,182.20266 31.127572,177.010858 31.127572,172.657925 C31.127572,170.614314 31.8886003,168.406547 33.388437,166.097224 L33.4689838,165.98315 L35.8367816,163.038068 L35.9367707,163.045024 L55.2568897,138.894523 L55.3096617,138.936257 C55.7387817,138.286587 56.5803567,137.236262 58.1135231,135.327594 L73.547954,116.111529 C75.671334,113.6617 77.5266875,111.542967 79.1487332,109.710812 C81.91371,106.582098 86.3382283,102.419753 92.7875262,102.419753 C98.2785951,102.419753 104.823716,104.865409 104.823716,116.513574 L104.823716,128.594389 L104.233502,129.010346 C99.4243037,132.396424 93.6957607,135.004845 87.2117443,136.763269 L85.4008303,137.254347 L85.4605461,135.377675 C85.498042,134.13398 85.5383154,133.057224 85.5785888,131.972121 C85.5966424,131.483824 85.6133072,130.994137 85.6313608,130.486364 L57.7468964,164.628162 L85.8757786,164.628162 L104.823716,159.247163 L104.823716,164.628162 L118.884685,164.628162 C123.648056,164.628162 127.522634,168.509492 127.522634,173.279773 C127.522634,178.050053 123.648056,181.931384 118.884685,181.931384 L104.823716,181.931384 L104.823716,196.573321 L118.884685,196.573321 C123.648056,196.573321 127.522634,200.454652 127.522634,205.226323 C127.522634,209.995213 123.648056,213.876543 118.884685,213.876543 L118.884685,213.876543 Z" id="Fill-18" fill="#0073D2"></path>
                </g>
            </g>
        </g>
    </g>
</svg>