<svg xmlns="http://www.w3.org/2000/svg" width="512" height="512" viewBox="0 0 72 72">
    <g fill="none" fill-rule="evenodd">
        <path fill="#43B02A" d="M14.904 33.362V61.07c.006.8.657 1.446 1.455 1.444h39.206a1.44 1.44 0 0 0 1.455-1.443V33.364a1.454 1.454 0 0 0-1.455-1.443H16.36c-.813 0-1.455.643-1.455 1.443v-.002zm-2.904 0c0-1.158.459-2.269 1.278-3.087a4.337 4.337 0 0 1 3.082-1.27h39.206a4.365 4.365 0 0 1 4.36 4.357V61.07c.001 1.16-.459 2.27-1.277 3.088a4.331 4.331 0 0 1-3.083 1.27H16.36A4.363 4.363 0 0 1 12 61.072V33.362z"/>
        <path fill="#43B02A" d="M32.947 8.896h5.072c5.203 0 9.422 4.215 9.423 9.415V28.97s.401.994 1.542.994 1.357-.993 1.357-.993V18.311C50.341 11.512 44.821 6 38.019 6h-5.072c-6.804 0-12.32 5.526-12.32 12.311v11.822l2.899.404V18.31c-.002-5.19 4.223-9.415 9.42-9.415z"/>
        <path fill="#0072CE" d="M35.963 39.142v14.232c0 .834.644 1.51 1.438 1.51.794 0 1.438-.676 1.438-1.51V39.142c0-.833-.644-1.51-1.438-1.51-.794 0-1.438.677-1.438 1.51z"/>
        <path d="M0 0h72v72H0z"/>
    </g>
</svg>
