<svg xmlns="http://www.w3.org/2000/svg" width="72" height="72" viewBox="0 0 72 72">
    <g fill="none" fill-rule="evenodd">
        <path d="M0 0h72v72H0z"/>
        <path fill="#43B02A" d="M14.908 33.427v28.145a1.467 1.467 0 0 0 1.458 1.468h39.266c.816 0 1.458-.654 1.458-1.467V33.428a1.466 1.466 0 0 0-1.458-1.466H16.366c-.815 0-1.458.654-1.458 1.466v-.001zm-2.908 0c0-1.177.46-2.306 1.28-3.136A4.312 4.312 0 0 1 16.366 29h39.266c2.406 0 4.359 1.979 4.367 4.427v28.145a4.46 4.46 0 0 1-1.28 3.137A4.307 4.307 0 0 1 55.633 66H16.366c-2.406.002-4.359-1.979-4.366-4.427V33.427z"/>
        <path fill="#0172CE" fill-rule="nonzero" d="M29.159 45.122h-2.092l1.046-1.808c.209-.413.104-.93-.314-1.188-.418-.258-.941-.103-1.203.31l-1.046 1.808-1.046-1.808c-.261-.413-.837-.516-1.255-.31-.419.259-.575.775-.314 1.188l1.046 1.808H21.89c-.47 0-.889.413-.889.878s.418.878.89.878h2.091l-1.046 1.808c-.261.413-.105.93.314 1.188.418.258.941.103 1.203-.31l1.046-1.808 1.046 1.808c.261.413.784.568 1.203.31.418-.259.575-.775.313-1.188l-1.046-1.808h2.092c.471 0 .89-.413.89-.878.052-.465-.367-.878-.837-.878zM51.11 45.122h-2.093l1.047-1.808c.262-.413.105-.93-.314-1.188-.419-.206-.942-.103-1.203.31L47.5 44.244l-1.047-1.808c-.261-.413-.784-.568-1.203-.31-.419.259-.576.775-.314 1.188l1.047 1.808H43.89c-.471 0-.89.413-.89.878s.419.878.89.878h2.093l-1.047 1.808c-.262.413-.105.93.314 1.188.419.258.942.103 1.203-.31l1.047-1.808 1.047 1.808c.261.413.784.568 1.203.31.419-.259.576-.775.314-1.188l-1.047-1.808h2.093c.471 0 .89-.413.89-.878a.876.876 0 0 0-.89-.878zM41.159 45.122h-2.092l1.046-1.808c.261-.413.104-.93-.314-1.188-.418-.258-.941-.103-1.203.31l-1.046 1.808-1.046-1.808a1.006 1.006 0 0 0-1.255-.31c-.419.259-.575.775-.314 1.188l1.046 1.808H33.89c-.47 0-.889.413-.889.878s.418.878.89.878h2.091l-1.046 1.808c-.261.413-.105.93.314 1.188.418.258.941.103 1.203-.31l1.046-1.808 1.046 1.808c.261.413.784.568 1.203.31.418-.259.575-.775.313-1.188l-1.046-1.808h2.092c.471 0 .89-.413.89-.878.052-.465-.367-.878-.837-.878z"/>
        <path fill="#0172CE" fill-rule="nonzero" d="M29.159 45.122h-2.092l1.046-1.808c.209-.413.104-.93-.314-1.188-.418-.258-.941-.103-1.203.31l-1.046 1.808-1.046-1.808c-.261-.413-.837-.516-1.255-.31-.419.259-.575.775-.314 1.188l1.046 1.808H21.89c-.47 0-.889.413-.889.878s.418.878.89.878h2.091l-1.046 1.808c-.261.413-.105.93.314 1.188.418.258.941.103 1.203-.31l1.046-1.808 1.046 1.808c.261.413.784.568 1.203.31.418-.259.575-.775.313-1.188l-1.046-1.808h2.092c.471 0 .89-.413.89-.878.052-.465-.367-.878-.837-.878zM51.11 45.122h-2.093l1.047-1.808c.262-.413.105-.93-.314-1.188-.419-.206-.942-.103-1.203.31L47.5 44.244l-1.047-1.808c-.261-.413-.784-.568-1.203-.31-.419.259-.576.775-.314 1.188l1.047 1.808H43.89c-.471 0-.89.413-.89.878s.419.878.89.878h2.093l-1.047 1.808c-.262.413-.105.93.314 1.188.419.258.942.103 1.203-.31l1.047-1.808 1.047 1.808c.261.413.784.568 1.203.31.419-.259.576-.775.314-1.188l-1.047-1.808h2.093c.471 0 .89-.413.89-.878a.876.876 0 0 0-.89-.878zM41.159 45.122h-2.092l1.046-1.808c.261-.413.104-.93-.314-1.188-.418-.258-.941-.103-1.203.31l-1.046 1.808-1.046-1.808a1.006 1.006 0 0 0-1.255-.31c-.419.259-.575.775-.314 1.188l1.046 1.808H33.89c-.47 0-.889.413-.889.878s.418.878.89.878h2.091l-1.046 1.808c-.261.413-.105.93.314 1.188.418.258.941.103 1.203-.31l1.046-1.808 1.046 1.808c.261.413.784.568 1.203.31.418-.259.575-.775.313-1.188l-1.046-1.808h2.092c.471 0 .89-.413.89-.878.052-.465-.367-.878-.837-.878z"/>
        <path fill="#43B02A" d="M32.438 8.951h5.122c5.252 0 9.512 4.295 9.513 9.593v10.86s.405 1.012 1.557 1.012S50 29.404 50 29.404v-10.86C50 11.616 44.426 6 37.56 6h-5.122C25.57 6 20 11.63 20 18.544v12.045l2.927.411V18.544c-.002-5.289 4.263-9.593 9.511-9.593z"/>
    </g>
</svg>
