<svg xmlns="http://www.w3.org/2000/svg" width="72" height="72" viewBox="0 0 72 72">
    <g fill="none" fill-rule="evenodd">
        <path d="M0 0h72v72H0z"/>
        <g stroke-width="2.3">
            <path stroke="#0072CE" stroke-linecap="square" d="M23.5 48.413L11.543 60.37"/>
            <path fill-rule="nonzero" stroke="#43B02A" d="M51.437 20.444L42.58 11.59a2.02 2.02 0 0 0-2.855 0l-5.906 5.903a2.024 2.024 0 0 0 0 2.854l3.004 3-9.084 9.084c-5.463-3.767-12.532-1.094-15.754 1.05-.504.335-.831.88-.888 1.481-.06.598.153 1.2.581 1.623l10.38 10.38 2.855 2.854L35.296 60.2a2.046 2.046 0 0 0 1.627.586 2.035 2.035 0 0 0 1.482-.893c2.148-3.221 4.817-10.29 1.046-15.753l9.084-9.08 3.003 3a2.02 2.02 0 0 0 2.855 0l5.902-5.907a2.02 2.02 0 0 0 0-2.854l-8.858-8.854z"/>
        </g>
    </g>
</svg>
