<svg xmlns="http://www.w3.org/2000/svg" width="72" height="72" viewBox="0 0 72 72">
    <g fill="none" fill-rule="evenodd">
        <path d="M0 0h72v72H0z"/>
        <g fill-rule="nonzero">
            <path fill="#0072CE" stroke="#0072CE" stroke-width="1.5" d="M27 43.493c-.005-.273-.331-.493-.73-.493H8.73c-.403 0-.73.224-.73.5s.327.5.73.5h17.54a.926.926 0 0 0 .52-.149c.137-.095.213-.224.21-.358zM17 29.493c-.003-.273-.157-.493-.346-.493H8.346c-.191 0-.346.224-.346.5s.155.5.346.5h8.308c.092 0 .181-.054.246-.149a.633.633 0 0 0 .1-.358zM17 36.493c-.003-.273-.21-.493-.462-.493H5.462c-.255 0-.462.224-.462.5s.207.5.462.5h11.076a.445.445 0 0 0 .329-.149.523.523 0 0 0 .133-.358z"/>
            <path fill="#43B02A" stroke="#43B02A" d="M60.86 18H21.698c-2.842 0-5.146 2.28-5.146 5.093v5.603l.025 1.528v7.012h1.544V23.093a3.5 3.5 0 0 1 .613-1.98l22.06 17.622c.284.228.69.228.973 0l22.055-17.643a3.5 3.5 0 0 1 .613 2.001v25.814c0 1.969-1.613 3.565-3.603 3.565H21.7c-1.99 0-3.603-1.596-3.603-3.565a.768.768 0 0 0-.771-.764.768.768 0 0 0-.772.764c0 1.35.542 2.646 1.507 3.601A5.173 5.173 0 0 0 21.699 54h39.155C63.696 54 66 51.72 66 48.907V23.093c0-2.81-2.3-5.09-5.14-5.093zM41.304 37.161L19.872 20.037a3.578 3.578 0 0 1 1.832-.509h39.155c.646.002 1.28.178 1.832.51L41.305 37.16z"/>
        </g>
    </g>
</svg>
