<svg xmlns="http://www.w3.org/2000/svg" xmlns:xlink="http://www.w3.org/1999/xlink" width="146" height="146" viewBox="0 0 146 146">
    <defs>
        <linearGradient id="a" x1="43.871%" x2="84.314%" y1="43.041%" y2="67.01%">
            <stop offset="0%" stop-color="#476DAB"/>
            <stop offset="100%" stop-color="#FFF" stop-opacity="0"/>
        </linearGradient>
        <path id="b" d="M0 0h39.601v107H0z"/>
    </defs>
    <g fill="none" fill-rule="evenodd">
        <rect width="146" height="146" fill="#B8C7E0" rx="10"/>
        <path fill="url(#a)" d="M35.166 120.146l28.47 25.729 64.922.125c5.64-1.172 9.827-3.645 12.561-7.42 2.92-4.031 4.217-7.891 3.888-11.58l.065-2.934-32.84-34.332-77.066 30.412z" opacity=".218"/>
        <g transform="translate(72.503 19)">
            <mask id="c" fill="#fff">
                <use xlink:href="#b"/>
            </mask>
            <path fill="#003A70" d="M0 107h28.613c6.058 0 10.988-4.875 10.988-10.867V2.145A2.071 2.071 0 0 0 38.97.6a2.128 2.128 0 0 0-2.975.011l-5.986 5.92-5.986-5.92a2.13 2.13 0 0 0-2.989 0l-5.986 5.92L9.063.612a2.13 2.13 0 0 0-2.988 0L.088 6.532 0 107z" mask="url(#c)"/>
        </g>
        <path fill="#0072CE" d="M72.417 25.532l-5.855-5.92a2.051 2.051 0 0 0-2.923 0l-5.856 5.92-5.855-5.92a2.052 2.052 0 0 0-2.923 0l-5.855 5.92-5.855-5.92a2.05 2.05 0 0 0-2.909-.011 2.095 2.095 0 0 0-.617 1.544v93.988c0 5.992 4.822 10.867 10.748 10.867h27.986l-.086-100.468z"/>
        <path fill="#EAEAEA" d="M93.335 52h-3.922a2.006 2.006 0 0 0-2.012 2c0 1.105.901 2 2.012 2h3.922a2.006 2.006 0 0 0 2.012-2c0-1.105-.9-2-2.012-2"/>
        <path fill="#FFF" d="M55.593 52h-3.921a2.006 2.006 0 0 0-2.012 2c0 1.105.9 2 2.012 2h3.921a2.006 2.006 0 0 0 2.012-2c0-1.105-.9-2-2.012-2"/>
        <path fill="#2F9916" d="M52.905 76.586c-.462-.372-1.102-.586-1.755-.586-.653 0-1.294.214-1.756.586-.462.372-.727.888-.727 1.414 0 .526.265 1.042.727 1.414.462.372 1.103.586 1.756.586s1.293-.214 1.755-.586c.462-.372.728-.888.728-1.414 0-.526-.266-1.042-.728-1.414M52.905 90.586c-.462-.372-1.102-.586-1.755-.586-.653 0-1.294.214-1.756.586-.462.372-.727.888-.727 1.414 0 .526.265 1.042.727 1.414.462.372 1.103.586 1.756.586s1.293-.214 1.755-.586c.462-.372.728-.888.728-1.414 0-.526-.266-1.042-.728-1.414"/>
        <path fill="#43B02A" d="M61.651 80h32.63c1.137 0 2.06-.895 2.06-2s-.923-2-2.06-2H61.65c-1.137 0-2.06.895-2.06 2s.923 2 2.06 2M94.28 90H61.652c-1.137 0-2.06.895-2.06 2s.923 2 2.06 2h32.63c1.137 0 2.06-.895 2.06-2s-.923-2-2.06-2M94.28 104H61.652c-1.137 0-2.06.896-2.06 2 0 1.105.923 2 2.06 2h32.63c1.137 0 2.06-.895 2.06-2 0-1.104-.923-2-2.06-2"/>
        <path fill="#2F9916" d="M52.905 104.586c-.462-.372-1.102-.586-1.755-.586-.653 0-1.294.214-1.756.586-.462.372-.727.888-.727 1.414 0 .526.265 1.042.727 1.414.462.372 1.103.586 1.756.586s1.293-.214 1.755-.586c.462-.372.728-.888.728-1.414 0-.526-.266-1.042-.728-1.414"/>
        <path fill="#FFF" d="M80.449 60.586c0 3.157-2.036 5.78-4.916 6.8v2.185c0 1.36-1.092 2.429-2.483 2.429-1.39 0-2.483-1.068-2.483-2.429v-2.137c-2.881-1.02-5.016-3.691-5.016-6.848 0-1.36 1.142-2.429 2.483-2.429 1.39 0 2.483 1.069 2.483 2.429 0 1.311 1.142 2.428 2.483 2.428h.05c1.39-.048 2.433-1.117 2.433-2.428 0-1.36-1.042-2.38-2.433-2.429H73c-4.072 0-7.449-3.303-7.449-7.285 0-3.206 2.136-5.878 5.016-6.85V40.43c0-1.36 1.092-2.429 2.483-2.429 1.39 0 2.483 1.068 2.483 2.429v3.594c2.88 1.02 4.916 3.691 4.916 6.849 0 1.311-1.092 2.428-2.483 2.428-1.341 0-2.483-1.117-2.483-2.428 0-1.36-1.042-2.38-2.433-2.43H73c-1.34 0-2.483 1.07-2.483 2.43 0 1.311 1.142 2.428 2.483 2.428h.05c4.122.049 7.399 3.254 7.399 7.286"/>
        <path fill="#EAEAEA" d="M79.456 60.403c0 3.207-1.913 5.872-4.62 6.909v2.22c0 1.383-1.026 2.468-2.333 2.468v-9.13c1.307-.05 2.287-1.135 2.287-2.467 0-1.382-.98-2.418-2.287-2.468V53c3.874.05 6.953 3.307 6.953 7.403M79.456 51.46c0 1.372-1.026 2.54-2.333 2.54-1.26 0-2.333-1.168-2.333-2.54 0-1.422-.98-2.488-2.287-2.54V38c1.307 0 2.333 1.117 2.333 2.54v3.758c2.707 1.067 4.62 3.86 4.62 7.162"/>
        <path fill="#2F9916" d="M73.497 80h21.766c1.143 0 2.07-.895 2.07-2s-.927-2-2.07-2H73.497v4zM73.497 94h21.766c1.143 0 2.07-.895 2.07-2s-.927-2-2.07-2H73.497v4zM73.497 108h21.766c1.143 0 2.07-.895 2.07-2s-.927-2-2.07-2H73.497v4z"/>
    </g>
</svg>
