<svg xmlns="http://www.w3.org/2000/svg" width="146" height="146" viewBox="0 0 146 146">
    <defs>
        <linearGradient id="a" x1="43.879%" x2="84.271%" y1="23.448%" y2="114.901%">
            <stop offset="0%" stop-color="#476DAB"/>
            <stop offset="100%" stop-color="#FFF" stop-opacity="0"/>
        </linearGradient>
    </defs>
    <g fill="none" fill-rule="evenodd">
        <rect width="146" height="146" fill="#B8C7E0" rx="10"/>
        <path fill="url(#a)" d="M73 123l23.786 23h34.91c5.595.75 9.553-.598 11.874-4.044 2.478-3.681 3.174-8.116 2.088-13.304l.342-28.331L116.755 73l-31.029 44.157L73 123z" opacity=".218"/>
        <path fill="#00B103" d="M29 73l43.878-50H46.864C36.998 23 29 31.147 29 41.197V73z"/>
        <path fill="#0073D2" d="M29 123l43.878-50H29z"/>
        <path fill="#00B103" d="M116.755 73l-43.877 50H98.89c9.866 0 17.864-8.147 17.864-18.197V73z"/>
        <path fill="#0073D2" d="M116.755 23L72.878 73h43.877z"/>
    </g>
</svg>
