<svg xmlns="http://www.w3.org/2000/svg" xmlns:xlink="http://www.w3.org/1999/xlink" width="146" height="146" viewBox="0 0 146 146">
    <defs>
        <linearGradient id="a" x1="43.871%" x2="84.314%" y1="38.312%" y2="78.569%">
            <stop offset="0%" stop-color="#476DAB"/>
            <stop offset="100%" stop-color="#FFF" stop-opacity="0"/>
        </linearGradient>
        <path id="b" d="M.225.31h36.306v17H.225z"/>
        <path id="d" d="M0 107.69h110.245V.33H0z"/>
    </defs>
    <g fill="none" fill-rule="evenodd">
        <rect width="146" height="146" fill="#B8C7E0" rx="10"/>
        <path fill="url(#a)" d="M41.714 125.801l22.312 20.074 65.122.125c5.657-1.172 9.857-3.645 12.6-7.42 2.93-4.031 4.23-7.891 3.9-11.58l.065-2.934L102.51 77l-27.69 37.41-33.106 11.391z" opacity=".218"/>
        <g transform="translate(17.878 19)">
            <path fill="#003A70" d="M97.708 27.755v-9.797a.862.862 0 0 0-.862-.862h-5.795v10.659h6.657z"/>
            <g transform="translate(54.626 .02)">
                <mask id="c" fill="#fff">
                    <use xlink:href="#b"/>
                </mask>
                <path fill="#EAEAEA" d="M36.531 16.84l-.203-15.653a.889.889 0 0 0-.9-.877L.226.77l.215 16.54 36.091-.47z" mask="url(#c)"/>
            </g>
            <mask id="e" fill="#fff">
                <use xlink:href="#d"/>
            </mask>
            <path fill="#EAEAEA" d="M54.957 27.755H91.05V17.096H54.957z" mask="url(#e)"/>
            <path fill="#003A70" d="M103.588 27.755h-5.88v8.798h-7.543c2.082 0 3.77 1.689 3.77 3.773v.003a3.772 3.772 0 0 1-3.77 3.773H54.957v9.41H93.703a3.563 3.563 0 0 1 3.561 3.563v19.529h6.324a6.659 6.659 0 0 0 6.656-6.662V34.415c0-3.678-2.98-6.66-6.656-6.66" mask="url(#e)"/>
            <path fill="#003A70" d="M91.051 36.552h6.656v-8.798h-6.656zM54.957 27.755v8.798H91.05v-8.798z" mask="url(#e)"/>
            <path fill="#2F9916" d="M90.163 62.393a.88.88 0 0 1 .444.123v-5.44a3.563 3.563 0 0 0-3.561-3.565h-32.09v8.882h35.207z" mask="url(#e)"/>
            <path fill="#2F9916" d="M93.703 53.511h-6.657a3.563 3.563 0 0 1 3.561 3.564v5.441a.884.884 0 0 1 .444.765v13.323h6.213V57.075a3.563 3.563 0 0 0-3.561-3.564" mask="url(#e)"/>
            <path fill="#EAEAEA" d="M78.84 76.604a1.6 1.6 0 0 1-.437.067H54.957v4.169h23.446a1.616 1.616 0 0 1 0 3.233H54.957v4.168h23.446a1.616 1.616 0 0 1 0 3.233H54.957v16.215h35.207c.49 0 .887-.397.887-.888V76.604H78.84zM54.957 62.393v11.045h23.446a1.612 1.612 0 1 1 .437 3.166h11.767V62.516a.88.88 0 0 0-.444-.123H54.957z" mask="url(#e)"/>
            <path fill="#D8D5ED" d="M90.607 62.516v14.088h.444V63.28a.884.884 0 0 0-.444-.765" mask="url(#e)"/>
            <path fill="#50536E" d="M54.957 76.671h23.446c.153 0 .298-.028.437-.067H54.957v.067z" mask="url(#e)"/>
            <path fill="#FFF" d="M80.019 75.055c0-.893-.724-1.617-1.616-1.617H54.957v3.166H78.84a1.612 1.612 0 0 0 1.179-1.55M78.403 84.073a1.616 1.616 0 0 0 0-3.233H54.957v3.233h23.446zM78.403 91.474a1.616 1.616 0 0 0 0-3.233H54.957v3.233h23.446z" mask="url(#e)"/>
            <path fill="#EAEAEA" d="M54.957 44.102h35.208c2.083 0 3.77-1.69 3.77-3.774v-.002a3.772 3.772 0 0 0-3.77-3.774H54.957v7.55z" mask="url(#e)"/>
            <path fill="#50536E" d="M97.708 17.958v9.796-9.796a.862.862 0 0 1 0 0" mask="url(#e)"/>
            <path fill="#003A70" d="M97.708 36.552v-8.798z" mask="url(#e)"/>
            <path fill="#FFF" d="M19.158 1.442v15.654h35.799V.554H20.045a.888.888 0 0 0-.887.888M19.158 27.755h35.799V17.096h-35.8z" mask="url(#e)"/>
            <path fill="#0072CE" d="M6.62 76.604h6.325V57.075a3.563 3.563 0 0 1 3.561-3.564h38.45v-9.409H20.045a3.772 3.772 0 0 1-3.77-3.773v-.003a3.772 3.772 0 0 1 3.77-3.774H12.5v-8.797H6.62A6.659 6.659 0 0 0 0 33.723v36.912a6.66 6.66 0 0 0 6.62 5.969" mask="url(#e)"/>
            <path fill="#0072CE" d="M54.957 27.755h-35.8v8.798H54.958z" mask="url(#e)"/>
            <path fill="#43B02A" d="M12.945 57.075v19.529h6.212V63.28c0-.49.398-.888.888-.888h34.912v-8.882h-38.45a3.563 3.563 0 0 0-3.562 3.564" mask="url(#e)"/>
            <path fill="#FFF" d="M43.684 98.876H31.806a1.616 1.616 0 0 1 0-3.234h11.878a1.616 1.616 0 0 1 0 3.234zm-11.878-7.402a1.616 1.616 0 0 1 0-3.233h23.151v-4.169H31.806a1.616 1.616 0 0 1 0-3.232h23.151V76.67H31.806c-.153 0-.298-.028-.437-.067H19.158V106.8c0 .49.397.888.887.888h34.912V91.474H31.806z" mask="url(#e)"/>
            <path fill="#FFF" d="M30.19 75.055c0-.893.723-1.617 1.616-1.617h23.151V62.393H20.045a.888.888 0 0 0-.887.888v13.323h12.21a1.612 1.612 0 0 1-1.178-1.55" mask="url(#e)"/>
            <path fill="#0072CE" d="M31.368 76.604c.14.04.285.067.437.067h23.152v-.067H31.368z" mask="url(#e)"/>
            <path fill="#EAEAEA" d="M54.957 73.438H31.805a1.612 1.612 0 1 0-.437 3.166h23.589v-3.166zM30.19 82.456c0 .893.723 1.617 1.616 1.617h23.151V80.84H31.806c-.893 0-1.616.723-1.616 1.616M30.19 89.858c0 .892.723 1.616 1.616 1.616h23.151v-3.233H31.806c-.893 0-1.616.724-1.616 1.617M43.684 95.642H31.806a1.616 1.616 0 0 0 0 3.234h11.878a1.616 1.616 0 0 0 0-3.234" mask="url(#e)"/>
            <path fill="#FFF" d="M20.044 36.552a3.772 3.772 0 0 0-3.771 3.774v.002a3.772 3.772 0 0 0 3.77 3.774h34.914v-7.55H20.044z" mask="url(#e)"/>
        </g>
    </g>
</svg>
