<svg xmlns="http://www.w3.org/2000/svg" width="146" height="146" viewBox="0 0 146 146">
    <defs>
        <linearGradient id="a" x1="43.871%" x2="84.314%" y1="40.694%" y2="72.747%">
            <stop offset="0%" stop-color="#476DAB"/>
            <stop offset="100%" stop-color="#FFF" stop-opacity="0"/>
        </linearGradient>
    </defs>
    <g fill="none" fill-rule="evenodd">
        <rect width="146" height="145.007" fill="#B8C7E0" rx="10"/>
        <path fill="url(#a)" d="M33 119.884l28 25.123h67.655c5.343.503 9.59-.047 12.742-1.65 3.386-2.533 4.899-6.619 4.537-12.255l.066-2.914-46.842-49.9-26.658 37.42-39.5 4.176z" opacity=".218"/>
        <path fill="#2F9916" d="M73 113.633v12.503h.577c22.232 0 40.254-2.799 40.254-6.252s-18.022-6.252-40.254-6.252H73z"/>
        <path fill="#43B02A" d="M73 126.136v-12.912c-22.104.012-40 2.897-40 6.456 0 3.559 17.896 6.445 40 6.456z"/>
        <path fill="#003A70" d="M73 19.871v96.225l.13.108.656-.545A83.053 83.053 0 0 0 104 51.577v-.81c.003-16.839-13.462-30.58-30.28-30.902-.24-.004-.48.005-.72.006z"/>
        <path fill="#0072CE" d="M42 51.607c.001 24.837 11.178 48.371 30.47 64.159l.53.438v-96.34c-17.11.098-31 14.644-31 31.743"/>
        <path fill="#F2F2F2" d="M73.131 26.816c-.043 0-.087.004-.131.004v47.667c.044 0 .088.003.131.003C86.314 74.49 97 63.818 97 50.653S86.314 26.816 73.131 26.816M49 50.653C49 63.775 59.734 74.42 73 74.49V26.816c-13.266.071-24 10.715-24 23.837"/>
        <path fill="#003A70" d="M87.806 59.387L74.343 35.475A1.374 1.374 0 0 0 73 34.768v26.81h13.592c1.085 0 1.761-1.22 1.214-2.191"/>
        <path fill="#0072CE" d="M71.894 35.47L58.197 59.385c-.556.972.132 2.192 1.236 2.192H73V34.762c-.435.04-.855.27-1.106.707"/>
        <path fill="#FFF" d="M70 84.422h7v-3.973h-7zM68 91.374h11v-3.973H68z"/>
        <path fill="#EAEAEA" d="M73 84.422h4v-3.973h-4zM73 91.374h6v-3.973h-6z"/>
        <path fill="#FFF" d="M73.165 57.605c.226 0 .434-.11.593-.29.15-.19.242-.449.242-.709 0-.26-.092-.52-.242-.71a.773.773 0 0 0-.758-.259v1.947a.68.68 0 0 0 .165.021"/>
        <path fill="#EAEAEA" d="M73.165 53.633c.46 0 .835-.534.835-1.192v-9.535c0-.658-.374-1.192-.835-1.192a.588.588 0 0 0-.165.025v11.87a.613.613 0 0 0 .165.024M72 56.608c0 .265.136.53.362.724.176.136.4.233.638.273V55.62a1.347 1.347 0 0 0-.638.265c-.226.193-.362.458-.362.724"/>
        <path fill="#FFF" d="M72 42.887v9.573c0 .58.43 1.062 1 1.173V41.714c-.57.11-1 .593-1 1.173"/>
    </g>
</svg>
