<svg xmlns="http://www.w3.org/2000/svg" xmlns:xlink="http://www.w3.org/1999/xlink" width="146" height="146" viewBox="0 0 146 146">
    <defs>
        <path id="a" d="M31.227 85L0 53.883 54.074 0 108 53.735v12.487C108 76.594 99.564 85 89.155 85H31.227z"/>
        <linearGradient id="b" x1="75.28%" x2="32.711%" y1="69.58%" y2="33.129%">
            <stop offset="0%" stop-color="#C7D2E8" stop-opacity="0"/>
            <stop offset="100%" stop-color="#90A0BB"/>
        </linearGradient>
    </defs>
    <g fill="none" fill-rule="evenodd">
        <rect width="146" height="146" fill="#B8C7E0" rx="10"/>
        <g opacity=".5" transform="translate(38 61)">
            <mask id="c" fill="#fff">
                <use xlink:href="#a"/>
            </mask>
            <path fill="url(#b)" d="M69.897 124L0 54.103 54.102 0 124 69.897z" mask="url(#c)"/>
        </g>
        <path fill="#0072CE" d="M73.593 54.131c-1.07 0-2.207 0-3.342.125h-.189c-20.678 1.955-37.658 21.583-37.658 43.46 0 25.407 23.6 28.37 41.19 28.37 17.462 0 37.826-2.648 40.663-23.516 2.962-24.462-16.455-48.439-40.664-48.439"/>
        <path fill="#003A70" d="M114.257 102.57c-2.837 20.868-23.2 23.515-40.664 23.515V54.131c24.209 0 43.626 23.977 40.664 48.439"/>
        <path fill="#0072CE" d="M95.47 28.955l-6.306 19.124H58.021l-6.304-19.124c-.379-.945-.189-2.018.377-2.837.631-.82 1.577-1.324 2.585-1.324h10.024c1.262-3.657 4.792-6.304 8.89-6.304 4.098 0 7.565 2.647 8.89 6.304h10.023c1.01 0 1.955.505 2.585 1.324.567.819.757 1.892.378 2.837"/>
        <path fill="#003A70" d="M95.47 28.955l-6.306 19.124h-15.57v-29.59c4.097 0 7.564 2.648 8.888 6.305h10.024c1.01 0 1.955.505 2.585 1.324.567.819.757 1.892.378 2.837"/>
        <path fill="#FFF" d="M82.987 98.66c0 4.099-2.584 7.503-6.241 8.827v2.837a3.121 3.121 0 0 1-3.153 3.152 3.12 3.12 0 0 1-3.152-3.152v-2.773c-3.657-1.325-6.368-4.792-6.368-8.89 0-1.765 1.45-3.152 3.153-3.152a3.122 3.122 0 0 1 3.152 3.152c0 1.703 1.45 3.152 3.152 3.152h.063c1.766-.063 3.089-1.45 3.089-3.152 0-1.765-1.323-3.09-3.09-3.152h-.062c-5.17 0-9.457-4.287-9.457-9.457 0-4.161 2.712-7.628 6.368-8.89v-4.665a3.12 3.12 0 0 1 3.152-3.151 3.12 3.12 0 0 1 3.153 3.15v4.667c3.657 1.324 6.24 4.79 6.24 8.889 0 1.703-1.386 3.152-3.151 3.152-1.703 0-3.153-1.45-3.153-3.152 0-1.765-1.323-3.09-3.09-3.152h-.062c-1.702 0-3.152 1.387-3.152 3.152 0 1.703 1.45 3.152 3.152 3.152h.063c5.233.063 9.394 4.225 9.394 9.457"/>
        <path fill="#43B02A" d="M95.659 50.222c0 3.467-2.837 6.304-6.304 6.304H57.832c-3.467 0-6.304-2.837-6.304-6.304s2.837-6.305 6.304-6.305h31.523c3.467 0 6.304 2.838 6.304 6.305"/>
        <path fill="#EAEAEA" d="M82.987 98.66c0 4.099-2.584 7.503-6.241 8.827v2.837a3.121 3.121 0 0 1-3.153 3.152v-11.663c1.766-.063 3.089-1.45 3.089-3.152 0-1.765-1.323-3.09-3.09-3.152v-6.305c5.234.063 9.395 4.225 9.395 9.457M82.987 86.052c0 1.703-1.387 3.152-3.152 3.152-1.703 0-3.153-1.449-3.153-3.152 0-1.765-1.323-3.089-3.09-3.152V69.345a3.122 3.122 0 0 1 3.154 3.152v4.666c3.657 1.324 6.24 4.791 6.24 8.889"/>
        <path fill="#2F9916" d="M95.659 50.222c0 3.467-2.837 6.304-6.304 6.304H73.594v-12.61h15.76c3.468 0 6.305 2.839 6.305 6.306"/>
    </g>
</svg>
